<svg xmlns="http://www.w3.org/2000/svg" viewBox="0 0 175.61 175.61"><defs><style>.cls-1{fill:#1a335f;}.cls-2{fill:#050606;opacity:0.22;}.cls-3{fill:#fff;}.cls-4{fill:#bcbec0;}</style></defs><title>Asset 2</title><g id="Layer_2" data-name="Layer 2"><g id="Layer_1-2" data-name="Layer 1"><path class="cls-1" d="M175.61,87.8A87.81,87.81,0,1,1,87.8,0,87.15,87.15,0,0,1,175.61,87.8Z"/><path class="cls-2" d="M174.45,102.07a87.88,87.88,0,0,1-107.27,71.1L40,146l1.61-5.95,4.73-17.5,4.71-2.7.5-.29L68.22,110,87.49,71.25l4.73-9.51L90.76,47.32l-1-9.76L87.49,15.11Z"/><rect class="cls-3" x="124.53" y="116.23" width="9.46" height="33.54" rx="4.73"/><rect class="cls-3" x="41.62" y="115.6" width="9.46" height="33.54" rx="4.73"/><rect class="cls-3" x="82.75" y="15.11" width="9.46" height="33.54" rx="4.73"/><polygon class="cls-3" points="87.49 32.01 46.16 132.73 87.49 104.72 128.81 132.73 87.49 32.01"/><polygon class="cls-4" points="87.49 104.72 128.81 132.73 87.49 32.01 87.49 104.72"/></g></g></svg>